<svg xmlns="http://www.w3.org/2000/svg" viewBox="0 0 27 30" fill="none" x="0px" y="0px"><path fill-rule="evenodd" clip-rule="evenodd" d="M7 4H17C17.5523 4 18 4.44772 18 5V7H20V5C20 3.34315 18.6569 2 17 2H7C5.34315 2 4 3.34315 4 5V19C4 20.6569 5.34315 22 7 22H12V20H7C6.44772 20 6 19.5523 6 19V5C6 4.44772 6.44771 4 7 4ZM8 7C8 6.44772 8.44772 6 9 6H15C15.5523 6 16 6.44772 16 7C16 7.55228 15.5523 8 15 8H9C8.44772 8 8 7.55228 8 7ZM8 11C8 10.4477 8.44772 10 9 10H15C15.5523 10 16 10.4477 16 11C16 11.5523 15.5523 12 15 12H9C8.44772 12 8 11.5523 8 11ZM9 14C8.44772 14 8 14.4477 8 15C8 15.5523 8.44772 16 9 16H12C12.5523 16 13 15.5523 13 15C13 14.4477 12.5523 14 12 14H9ZM22.1112 8.95883C20.7931 8.23121 19.1348 8.70985 18.4071 10.0279L14.6075 16.9107C14.5251 17.0601 14.4822 17.228 14.483 17.3986L14.4996 21.0047C14.5013 21.3699 14.7019 21.7052 15.023 21.8792C15.3441 22.0533 15.7345 22.0385 16.0414 21.8406L19.047 19.9029C19.1861 19.8132 19.3007 19.6905 19.3807 19.5457L23.1802 12.6629C23.9079 11.3448 23.4292 9.68645 22.1112 8.95883ZM20.1581 10.9945C20.3519 10.6434 20.7935 10.516 21.1446 10.7098C21.4956 10.9035 21.6231 11.3452 21.4293 11.6963L17.7515 18.3585L16.4912 19.171L16.4842 17.6496L20.1581 10.9945Z" fill="black"/><text x="0" y="39" fill="#000000" font-size="5px" font-weight="bold" font-family="'Helvetica Neue', Helvetica, Arial-Unicode, Arial, Sans-serif">Created by sivakumar</text><text x="0" y="44" fill="#000000" font-size="5px" font-weight="bold" font-family="'Helvetica Neue', Helvetica, Arial-Unicode, Arial, Sans-serif">from the Noun Project</text></svg>